<svg xmlns="http://www.w3.org/2000/svg" xmlns:xlink="http://www.w3.org/1999/xlink" width="33" height="33" viewBox="0 0 33 33">
  <defs>
    <clipPath id="clip-path">
      <rect id="사각형_98" data-name="사각형 98" width="33" height="33"/>
    </clipPath>
  </defs>
  <g id="그룹_28" data-name="그룹 28" clip-path="url(#clip-path)">
    <path id="패스_96" data-name="패스 96" d="M30.624,18.772,28.013,9.379a12.808,12.808,0,0,0-24.842.651L1.15,19.12a6.871,6.871,0,0,0,6.707,8.361H9.387a6.87,6.87,0,0,0,13.466,0H24a6.87,6.87,0,0,0,6.62-8.709ZM16.12,30.229a4.122,4.122,0,0,1-3.869-2.748H19.99a4.122,4.122,0,0,1-3.869,2.748ZM27.286,23.1A4.091,4.091,0,0,1,24,24.733H7.856a4.122,4.122,0,0,1-4.023-5.017l2.02-9.091a10.06,10.06,0,0,1,19.512-.511l2.611,9.393a4.091,4.091,0,0,1-.69,3.6Z" transform="translate(0.369 0.001)"/>
  </g>
</svg>