<svg xmlns="http://www.w3.org/2000/svg" xmlns:xlink="http://www.w3.org/1999/xlink" width="34" height="34" viewBox="0 0 34 34">
  <defs>
    <clipPath id="clip-path">
      <rect id="사각형_295" data-name="사각형 295" width="30" height="25"/>
    </clipPath>
  </defs>
  <g id="그룹_68" data-name="그룹 68" clip-path="url(#clip-path)">
    <path id="패스_223" data-name="패스 223" d="M31.067,2.627a6.986,6.986,0,0,0-5.738-1.513l-5.349.971a5.6,5.6,0,0,0-3.188,1.8,5.6,5.6,0,0,0-3.2-1.8l-5.34-.971A7,7,0,0,0,0,8V23.1a7,7,0,0,0,5.745,6.884l8.8,1.6a12.59,12.59,0,0,0,4.5,0l8.8-1.6A7,7,0,0,0,33.586,23.1V8a6.973,6.973,0,0,0-2.519-5.37ZM15.394,28.887c-.118-.017-.235-.036-.353-.057l-8.8-1.6A4.2,4.2,0,0,1,2.8,23.1V8A4.2,4.2,0,0,1,7,3.8a4.313,4.313,0,0,1,.756.069l5.346.98a2.8,2.8,0,0,1,2.3,2.747ZM30.787,23.1a4.2,4.2,0,0,1-3.447,4.131l-8.8,1.6c-.118.021-.235.041-.353.057V7.594a2.8,2.8,0,0,1,2.3-2.754l5.347-.98A4.2,4.2,0,0,1,30.787,8Z" transform="translate(0 0.4)"/>
  </g>
</svg>