<svg xmlns="http://www.w3.org/2000/svg" xmlns:xlink="http://www.w3.org/1999/xlink" width="33" height="33" viewBox="0 0 33 33">
  <defs>
    <clipPath id="clip-path">
      <rect id="사각형_296" data-name="사각형 296" width="30" height="25"/>
    </clipPath>
  </defs>
  <g id="그룹_69" data-name="그룹 69" clip-path="url(#clip-path)">
    <path id="패스_224" data-name="패스 224" d="M10.057,12.113A2.057,2.057,0,1,0,8,10.057,2.057,2.057,0,0,0,10.057,12.113Z" transform="translate(2.968 2.968)"/>
    <path id="패스_225" data-name="패스 225" d="M19.057,4.113A2.057,2.057,0,1,0,17,2.057,2.057,2.057,0,0,0,19.057,4.113Z" transform="translate(6.308)"/>
    <path id="패스_226" data-name="패스 226" d="M22.057,9.113A2.057,2.057,0,1,0,20,7.057,2.057,2.057,0,0,0,22.057,9.113Z" transform="translate(7.421 1.855)"/>
    <path id="패스_227" data-name="패스 227" d="M10.057,17.113A2.057,2.057,0,1,0,8,15.057,2.057,2.057,0,0,0,10.057,17.113Z" transform="translate(2.968 4.824)"/>
    <path id="패스_228" data-name="패스 228" d="M15.057,17.113A2.057,2.057,0,1,0,13,15.057,2.057,2.057,0,0,0,15.057,17.113Z" transform="translate(4.824 4.824)"/>
    <path id="패스_229" data-name="패스 229" d="M32.827,14.881a1.371,1.371,0,0,0-1.234-1.234,13.71,13.71,0,0,1-8.38-3.953,13.71,13.71,0,0,1-3.952-8.381A1.371,1.371,0,0,0,18.027.08C17.507.029,16.983,0,16.453,0A16.453,16.453,0,1,0,32.905,16.453C32.905,15.922,32.876,15.4,32.827,14.881ZM16.453,30.163a13.711,13.711,0,0,1,0-27.421h.233a16.461,16.461,0,0,0,4.59,8.888,16.462,16.462,0,0,0,8.888,4.59v.233A13.725,13.725,0,0,1,16.453,30.163Z" transform="translate(0 0)"/>
  </g>
</svg>