<svg xmlns="http://www.w3.org/2000/svg" width="30" height="25" viewBox="0 0 33.405 30.897">
  <g id="그룹_25" data-name="그룹 25" transform="translate(0)">
    <path id="패스_82" data-name="패스 82" d="M9.992,7.25A1.273,1.273,0,0,1,11.285,8.5V10.59h2.155a1.253,1.253,0,1,1,0,2.505H11.285v2.088a1.294,1.294,0,0,1-2.587,0V13.1H6.543a1.253,1.253,0,1,1,0-2.505H8.7V8.5A1.273,1.273,0,0,1,9.992,7.25Z" transform="translate(-0.187 1.101)"/>
    <path id="패스_83" data-name="패스 83" d="M18.449,12.42a1.725,1.725,0,0,0-3.449,0v.418a1.725,1.725,0,0,0,3.449,0Z" transform="translate(6.876 3.446)"/>
    <path id="패스_84" data-name="패스 84" d="M16.724,7a1.7,1.7,0,0,1,1.724,1.67v.418a1.725,1.725,0,0,1-3.449,0V8.67A1.7,1.7,0,0,1,16.724,7Z" transform="translate(6.876 0.933)"/>
    <path id="패스_85" data-name="패스 85" d="M20.63,10.67a1.7,1.7,0,0,1-1.724,1.67h-.431a1.671,1.671,0,1,1,0-3.34h.431A1.7,1.7,0,0,1,20.63,10.67Z" transform="translate(8.144 2.273)"/>
    <path id="패스_86" data-name="패스 86" d="M15.155,12.34a1.671,1.671,0,1,0,0-3.34h-.431a1.671,1.671,0,1,0,0,3.34Z" transform="translate(5.427 2.273)"/>
    <path id="패스_87" data-name="패스 87" d="M20.31,3.5a1.294,1.294,0,0,0-2.587,0V5.986q-3.722.049-7.436.382l-.572.051a7.972,7.972,0,0,0-7.37,7.7l-.021,1.192A69.514,69.514,0,0,0,3.483,29.217a4.89,4.89,0,0,0,4.853,3.93h.381a5.4,5.4,0,0,0,4.924-3.1l1.829-3.994a3.932,3.932,0,0,1,7.093,0l1.829,3.994a5.4,5.4,0,0,0,4.924,3.1H29.7a4.89,4.89,0,0,0,4.853-3.93,69.524,69.524,0,0,0,1.158-13.908l-.021-1.192a7.972,7.972,0,0,0-7.37-7.7l-.572-.051q-3.711-.333-7.436-.382Zm-9.784,5.36a95.034,95.034,0,0,1,16.981,0l.572.051A5.432,5.432,0,0,1,33.1,14.16l.021,1.192A67.081,67.081,0,0,1,32,28.774,2.325,2.325,0,0,1,29.7,30.642h-.381a2.805,2.805,0,0,1-2.56-1.612l-1.829-3.994a6.554,6.554,0,0,0-11.822,0L11.277,29.03a2.805,2.805,0,0,1-2.56,1.612H8.336a2.325,2.325,0,0,1-2.307-1.869A67.085,67.085,0,0,1,4.911,15.351l.021-1.192A5.433,5.433,0,0,1,9.954,8.914Z" transform="translate(-2.314 -2.25)" fill-rule="evenodd"/>
  </g>
</svg>