<svg xmlns="http://www.w3.org/2000/svg" width="30" height="25" viewBox="0 0 34.808 31.004">
  <path id="패스_88" data-name="패스 88" d="M24.3,7a5.507,5.507,0,0,0-6.494,0l-9.642,7.5a1.216,1.216,0,0,0-.454.684,37.627,37.627,0,0,0-.252,15.468l.235,1.218h6.2v-10.5a1.439,1.439,0,0,1,1.563-1.268H26.648a1.439,1.439,0,0,1,1.563,1.268v10.5h6.2l.234-1.218A37.623,37.623,0,0,0,34.4,15.19a1.215,1.215,0,0,0-.454-.684ZM15.642,5.173a9.177,9.177,0,0,1,10.822,0l9.642,7.5a3.653,3.653,0,0,1,1.365,2.057,39.69,39.69,0,0,1,.266,16.316l-.377,1.957a1.967,1.967,0,0,1-2.025,1.406H26.648a1.439,1.439,0,0,1-1.563-1.268v-10.5H17.022v10.5a1.439,1.439,0,0,1-1.563,1.268H6.771a1.967,1.967,0,0,1-2.025-1.406l-.377-1.957a39.691,39.691,0,0,1,.266-16.316A3.654,3.654,0,0,1,6,12.676Z" transform="translate(-3.649 -3.408)" fill-rule="evenodd"/>
</svg>