<svg xmlns="http://www.w3.org/2000/svg" xmlns:xlink="http://www.w3.org/1999/xlink" width="29.921" height="29.386" viewBox="0 0 29.921 29.386">
  <defs>
    <clipPath id="clip-path">
      <rect id="사각형_91" data-name="사각형 91" width="30" height="25"/>
    </clipPath>
  </defs>
  <g id="그룹_27" data-name="그룹 27" transform="translate(0.504) rotate(1)" clip-path="url(#clip-path)">
    <path id="패스_93" data-name="패스 93" d="M8.581,26.471H6.129a3.713,3.713,0,0,1-2.6-1.057,3.576,3.576,0,0,1-1.077-2.552V6.016A3.576,3.576,0,0,1,3.529,3.464a3.713,3.713,0,0,1,2.6-1.057H8.581a1.238,1.238,0,0,0,.867-.352,1.188,1.188,0,0,0,0-1.7A1.238,1.238,0,0,0,8.581,0H6.129A6.2,6.2,0,0,0,1.8,1.764,5.967,5.967,0,0,0,0,6.016V22.861a5.968,5.968,0,0,0,1.8,4.252,6.2,6.2,0,0,0,4.332,1.764H8.581a1.238,1.238,0,0,0,.867-.352,1.188,1.188,0,0,0,0-1.7A1.238,1.238,0,0,0,8.581,26.471Z" transform="translate(0 0)"/>
    <path id="패스_94" data-name="패스 94" d="M21.6,21.49l5.623-5.518a3.571,3.571,0,0,0,0-5.1L21.6,5.35a1.242,1.242,0,0,0-1.718.015,1.187,1.187,0,0,0-.015,1.687l5.262,5.165H6.226a1.238,1.238,0,0,0-.867.352,1.188,1.188,0,0,0,0,1.7,1.237,1.237,0,0,0,.867.352h18.9l-5.263,5.165a1.2,1.2,0,0,0-.275.391,1.183,1.183,0,0,0-.008.931,1.2,1.2,0,0,0,.268.4,1.229,1.229,0,0,0,.4.263,1.247,1.247,0,0,0,.948-.008A1.224,1.224,0,0,0,21.6,21.49Z" transform="translate(1.129 1.019)"/>
  </g>
</svg>