<svg xmlns="http://www.w3.org/2000/svg" xmlns:xlink="http://www.w3.org/1999/xlink" width="34" height="34" viewBox="0 0 34 34">
  <defs>
    <clipPath id="clip-path">
      <rect id="사각형_294" data-name="사각형 294" width="30" height="25"/>
    </clipPath>
  </defs>
  <g id="그룹_67" data-name="그룹 67" clip-path="url(#clip-path)">
    <path id="패스_222" data-name="패스 222" d="M26.842,0H7.064A7.072,7.072,0,0,0,0,7.064V26.842a7.072,7.072,0,0,0,7.064,7.064H26.842a7.072,7.072,0,0,0,7.064-7.064V7.064A7.072,7.072,0,0,0,26.842,0Zm1.413,15.54H31.08v2.825H28.254Zm0-2.825V9.889H31.08v2.825ZM25.429,15.54H8.476V2.825H25.429ZM5.651,18.365H2.825V15.54H5.651Zm0-5.651H2.825V9.889H5.651ZM2.825,21.191H5.651v2.825H2.825Zm5.651-2.825H25.429V31.08H8.476Zm19.778,2.825H31.08v2.825H28.254ZM31.08,7.064H28.254V3.085A4.238,4.238,0,0,1,31.08,7.064ZM5.651,3.085V7.064H2.825A4.238,4.238,0,0,1,5.651,3.085ZM2.825,26.842H5.651V30.82a4.238,4.238,0,0,1-2.825-3.978ZM28.254,30.82V26.842H31.08a4.238,4.238,0,0,1-2.825,3.978Z"/>
  </g>
</svg>