<svg xmlns="http://www.w3.org/2000/svg" width="30" height="25" viewBox="0 0 35 29.203">
  <path id="패스_235" data-name="패스 235" d="M30.657,17.221V15.141a13.141,13.141,0,1,0-26.283,0v2.079A7.3,7.3,0,0,0,7.294,31.2a2.92,2.92,0,0,0,2.92-2.92V19.522a2.92,2.92,0,0,0-2.92-2.92v-1.46a10.221,10.221,0,0,1,20.442,0V16.6a2.92,2.92,0,0,0-2.92,2.92v8.761a2.92,2.92,0,0,0,2.92,2.92,7.3,7.3,0,0,0,2.92-13.983ZM7.294,28.283a4.38,4.38,0,0,1,0-8.761Zm20.442,0V19.522a4.38,4.38,0,0,1,0,8.761Z" transform="translate(-0.015 -2)"/>
</svg>