<svg xmlns="http://www.w3.org/2000/svg" width="30" height="25" viewBox="0 0 29.545 32.838">
  <g id="그룹_72" data-name="그룹 72" transform="translate(-1.203)">
    <path id="패스_238" data-name="패스 238" d="M13.473,8a5.473,5.473,0,1,0,3.87,1.6A5.473,5.473,0,0,0,13.473,8Zm0,8.209a2.737,2.737,0,1,1,1.935-.8A2.736,2.736,0,0,1,13.473,16.209Z" transform="translate(2.503 2.946)"/>
    <path id="패스_239" data-name="패스 239" d="M28.692,19.019l-.608-.35a12.451,12.451,0,0,0,0-4.5l.608-.35a4.107,4.107,0,0,0-4.1-7.115l-.609.352a12.281,12.281,0,0,0-3.9-2.247V4.1a4.1,4.1,0,1,0-8.209,0v.7a12.283,12.283,0,0,0-3.9,2.252L7.363,6.7a4.107,4.107,0,0,0-4.1,7.115l.608.35a12.451,12.451,0,0,0,0,4.5l-.608.35a4.107,4.107,0,0,0,4.1,7.115l.609-.352a12.282,12.282,0,0,0,3.9,2.247v.7a4.1,4.1,0,1,0,8.209,0v-.7a12.281,12.281,0,0,0,3.9-2.252l.612.353a4.107,4.107,0,1,0,4.1-7.115Zm-3.486-5.166a9.642,9.642,0,0,1,0,5.131,1.369,1.369,0,0,0,.635,1.55l1.483.857a1.369,1.369,0,1,1-1.368,2.371L24.47,22.9a1.368,1.368,0,0,0-1.662.226,9.554,9.554,0,0,1-4.437,2.565,1.368,1.368,0,0,0-1.028,1.326v1.714a1.368,1.368,0,0,1-2.736,0V27.02a1.368,1.368,0,0,0-1.028-1.326,9.555,9.555,0,0,1-4.436-2.571A1.368,1.368,0,0,0,7.48,22.9L6,23.755a1.368,1.368,0,1,1-1.368-2.37l1.483-.857a1.368,1.368,0,0,0,.635-1.55,9.643,9.643,0,0,1,0-5.131A1.368,1.368,0,0,0,6.111,12.3l-1.483-.857A1.369,1.369,0,0,1,6,9.076l1.486.859a1.368,1.368,0,0,0,1.661-.22A9.556,9.556,0,0,1,13.58,7.149a1.368,1.368,0,0,0,1.028-1.331V4.1a1.368,1.368,0,0,1,2.736,0V5.818a1.368,1.368,0,0,0,1.028,1.326,9.555,9.555,0,0,1,4.437,2.571,1.368,1.368,0,0,0,1.662.226l1.483-.858a1.368,1.368,0,1,1,1.368,2.37l-1.483.857a1.369,1.369,0,0,0-.633,1.545Z" transform="translate(0 0)"/>
  </g>
</svg>