<svg xmlns="http://www.w3.org/2000/svg" width="21.5" height="21.5" viewBox="0 0 21.5 21.5">
  <g id="그룹_59" data-name="그룹 59" transform="translate(-1.25 -1.25)">
    <path id="패스_200" data-name="패스 200" d="M12,1.25a.75.75,0,0,1,.75.75V3a.75.75,0,0,1-1.5,0V2A.75.75,0,0,1,12,1.25Z" fill="#fff"/>
    <path id="패스_201" data-name="패스 201" d="M6.25,12A5.75,5.75,0,1,1,12,17.75,5.75,5.75,0,0,1,6.25,12ZM12,7.75A4.25,4.25,0,1,0,16.25,12,4.25,4.25,0,0,0,12,7.75Z" fill="#fff" fill-rule="evenodd"/>
    <path id="패스_202" data-name="패스 202" d="M5.459,4.4A.75.75,0,0,0,4.4,5.459l.707.707A.75.75,0,1,0,6.166,5.106Z" fill="#fff"/>
    <path id="패스_203" data-name="패스 203" d="M22.75,12a.75.75,0,0,1-.75.75H21a.75.75,0,0,1,0-1.5h1A.75.75,0,0,1,22.75,12Z" fill="#fff"/>
    <path id="패스_204" data-name="패스 204" d="M19.6,5.459A.75.75,0,0,0,18.541,4.4l-.707.707a.75.75,0,0,0,1.061,1.061Z" fill="#fff"/>
    <path id="패스_205" data-name="패스 205" d="M12,20.25a.75.75,0,0,1,.75.75v1a.75.75,0,0,1-1.5,0V21A.75.75,0,0,1,12,20.25Z" fill="#fff"/>
    <path id="패스_206" data-name="패스 206" d="M18.894,17.834a.75.75,0,0,0-1.061,1.061l.707.707A.75.75,0,1,0,19.6,18.541Z" fill="#fff"/>
    <path id="패스_207" data-name="패스 207" d="M3.75,12a.75.75,0,0,1-.75.75H2a.75.75,0,0,1,0-1.5H3A.75.75,0,0,1,3.75,12Z" fill="#fff"/>
    <path id="패스_208" data-name="패스 208" d="M6.166,18.894a.75.75,0,0,0-1.061-1.061l-.707.707A.75.75,0,0,0,5.459,19.6Z" fill="#fff"/>
  </g>
</svg>