<svg xmlns="http://www.w3.org/2000/svg" xmlns:xlink="http://www.w3.org/1999/xlink" width="35" height="32" viewBox="0 0 35 32">
  <defs>
    <clipPath id="clip-path">
      <rect id="사각형_90" data-name="사각형 90" width="30" height="25" fill="#010101"/>
    </clipPath>
  </defs>
  <g id="그룹_26" data-name="그룹 26" clip-path="url(#clip-path)">
    <path id="패스_91" data-name="패스 91" d="M14.643,16.066a9.116,9.116,0,0,0,4.8-1.354,8.191,8.191,0,0,0,3.183-3.605,7.509,7.509,0,0,0,.492-4.641,7.874,7.874,0,0,0-2.365-4.113,8.864,8.864,0,0,0-4.425-2.2,9.253,9.253,0,0,0-4.993.457A8.538,8.538,0,0,0,7.457,3.57,7.636,7.636,0,0,0,6,8.033a7.765,7.765,0,0,0,2.534,5.678A9,9,0,0,0,14.643,16.066Zm0-13.389a6.078,6.078,0,0,1,3.2.9,5.46,5.46,0,0,1,2.122,2.4,5,5,0,0,1,.328,3.094,5.25,5.25,0,0,1-1.577,2.742,5.909,5.909,0,0,1-2.95,1.466,6.169,6.169,0,0,1-3.329-.3,5.692,5.692,0,0,1-2.586-1.972,5.091,5.091,0,0,1-.971-2.975,5.171,5.171,0,0,1,1.688-3.787A5.991,5.991,0,0,1,14.643,2.678Z" transform="translate(2.643 0)" fill="#010101"/>
    <path id="패스_92" data-name="패스 92" d="M15.964,14A13.493,13.493,0,0,0,6.8,17.533,11.649,11.649,0,0,0,3,26.05,1.293,1.293,0,0,0,3.422,27a1.519,1.519,0,0,0,2.037,0,1.293,1.293,0,0,0,.422-.947,9.049,9.049,0,0,1,2.953-6.627,10.632,10.632,0,0,1,14.26,0,9.049,9.049,0,0,1,2.953,6.627,1.293,1.293,0,0,0,.422.947,1.519,1.519,0,0,0,2.037,0,1.293,1.293,0,0,0,.422-.947,11.648,11.648,0,0,0-3.8-8.516A13.493,13.493,0,0,0,15.964,14Z" transform="translate(1.321 4.744)" fill="#010101"/>
  </g>
</svg>